HIERARCHY
ROOT Hips
{
    OFFSET 0.000000 0.000000 0.000000
    CHANNELS 6 Xposition Yposition Zposition Zrotation Xrotation Yrotation
    JOINT Spine
    {
        OFFSET 0.000002 8.507403 -0.000000
        CHANNELS 3 Zrotation Xrotation Yrotation
        JOINT Spine1
        {
            OFFSET 0.000002 20.804083 -0.000000
            CHANNELS 3 Zrotation Xrotation Yrotation
            JOINT Neck
            {
                OFFSET -0.000001 20.804852 -0.000000
                CHANNELS 3 Zrotation Xrotation Yrotation
                JOINT Head
                {
                    OFFSET 0.000001 13.409598 1.849601
                    CHANNELS 3 Zrotation Xrotation Yrotation
                    End Site
                    {
                        OFFSET 0.000000 18.496019 0.000000
                    }
                }
            }
            JOINT LeftShoulder
            {
                OFFSET 3.685385 16.435028 -0.256700
                CHANNELS 3 Zrotation Xrotation Yrotation
                JOINT LeftArm
                {
                    OFFSET 7.603859 0.000000 0.000002
                    CHANNELS 3 Zrotation Xrotation Yrotation
                    JOINT LeftForeArm
                    {
                        OFFSET 31.111065 -0.000006 0.000000
                        CHANNELS 3 Zrotation Xrotation Yrotation
                        JOINT LeftHand
                        {
                            OFFSET 21.128422 0.000000 -0.000003
                            CHANNELS 3 Zrotation Xrotation Yrotation
                            JOINT LeftHandThumb1
                            {
                                OFFSET 1.932834 -2.196399 3.074957
                                CHANNELS 3 Zrotation Xrotation Yrotation
                                JOINT LeftHandThumb2
                                {
                                    OFFSET 2.919251 0.000000 -0.000000
                                    CHANNELS 3 Zrotation Xrotation Yrotation
                                    JOINT LeftHandThumb3
                                    {
                                        OFFSET 2.495112 -0.000000 -0.000004
                                        CHANNELS 3 Zrotation Xrotation Yrotation
                                        End Site
                                        {
                                            OFFSET 2.307480 0.000000 0.000000
                                        }
                                    }
                                }
                            }
                            JOINT LeftHandIndex1
                            {
                                OFFSET 7.907043 -0.000003 3.074959
                                CHANNELS 3 Zrotation Xrotation Yrotation
                                JOINT LeftHandIndex2
                                {
                                    OFFSET 4.392798 0.000001 -0.000003
                                    CHANNELS 3 Zrotation Xrotation Yrotation
                                    JOINT LeftHandIndex3
                                    {
                                        OFFSET 2.196400 0.000001 -0.000000
                                        CHANNELS 3 Zrotation Xrotation Yrotation
                                        End Site
                                        {
                                            OFFSET 2.031233 0.000000 0.000000
                                        }
                                    }
                                }
                            }
                            JOINT LeftHandMiddle1
                            {
                                OFFSET 7.907042 -0.000003 1.019130
                                CHANNELS 3 Zrotation Xrotation Yrotation
                                JOINT LeftHandMiddle2
                                {
                                    OFFSET 4.832081 -0.000001 -0.000000
                                    CHANNELS 3 Zrotation Xrotation Yrotation
                                    JOINT LeftHandMiddle3
                                    {
                                        OFFSET 2.635683 -0.000002 -0.000000
                                        CHANNELS 3 Zrotation Xrotation Yrotation
                                        End Site
                                        {
                                            OFFSET 2.437479 0.000000 0.000000
                                        }
                                    }
                                }
                            }
                            JOINT LeftHandRing1
                            {
                                OFFSET 7.467763 -0.000004 -1.019130
                                CHANNELS 3 Zrotation Xrotation Yrotation
                                JOINT LeftHandRing2
                                {
                                    OFFSET 4.392805 0.000001 -0.000002
                                    CHANNELS 3 Zrotation Xrotation Yrotation
                                    JOINT LeftHandRing3
                                    {
                                        OFFSET 2.196399 0.000000 -0.000001
                                        CHANNELS 3 Zrotation Xrotation Yrotation
                                        End Site
                                        {
                                            OFFSET 2.031233 0.000000 0.000000
                                        }
                                    }
                                }
                            }
                            JOINT LeftHandPinky1
                            {
                                OFFSET 7.028484 -0.000003 -3.074962
                                CHANNELS 3 Zrotation Xrotation Yrotation
                                JOINT LeftHandPinky2
                                {
                                    OFFSET 3.514243 -0.000001 -0.000002
                                    CHANNELS 3 Zrotation Xrotation Yrotation
                                    JOINT LeftHandPinky3
                                    {
                                        OFFSET 1.757121 -0.000003 0.000001
                                        CHANNELS 3 Zrotation Xrotation Yrotation
                                        End Site
                                        {
                                            OFFSET 1.624986 0.000000 0.000000
                                        }
                                    }
                                }
                            }
                        }
                    }
                }
            }
            JOINT RightShoulder
            {
                OFFSET -3.685388 16.435028 -0.256702
                CHANNELS 3 Zrotation Xrotation Yrotation
                JOINT RightArm
                {
                    OFFSET -7.603857 0.000002 -0.000002
                    CHANNELS 3 Zrotation Xrotation Yrotation
                    JOINT RightForeArm
                    {
                        OFFSET -31.111073 -0.000006 -0.000002
                        CHANNELS 3 Zrotation Xrotation Yrotation
                        JOINT RightHand
                        {
                            OFFSET -21.128426 -0.000003 -0.000001
                            CHANNELS 3 Zrotation Xrotation Yrotation
                            JOINT RightHandThumb1
                            {
                                OFFSET -1.932836 -2.196401 3.074960
                                CHANNELS 3 Zrotation Xrotation Yrotation
                                JOINT RightHandThumb2
                                {
                                    OFFSET -2.919258 0.000002 -0.000004
                                    CHANNELS 3 Zrotation Xrotation Yrotation
                                    JOINT RightHandThumb3
                                    {
                                        OFFSET -2.495115 -0.000001 0.000001
                                        CHANNELS 3 Zrotation Xrotation Yrotation
                                        End Site
                                        {
                                            OFFSET -2.307480 0.000000 0.000000
                                        }
                                    }
                                }
                            }
                            JOINT RightHandIndex1
                            {
                                OFFSET -7.907043 0.000004 3.074963
                                CHANNELS 3 Zrotation Xrotation Yrotation
                                JOINT RightHandIndex2
                                {
                                    OFFSET -4.392804 -0.000001 -0.000003
                                    CHANNELS 3 Zrotation Xrotation Yrotation
                                    JOINT RightHandIndex3
                                    {
                                        OFFSET -2.196404 0.000005 -0.000001
                                        CHANNELS 3 Zrotation Xrotation Yrotation
                                        End Site
                                        {
                                            OFFSET -2.031233 0.000000 0.000000
                                        }
                                    }
                                }
                            }
                            JOINT RightHandMiddle1
                            {
                                OFFSET -7.907044 -0.000004 1.019130
                                CHANNELS 3 Zrotation Xrotation Yrotation
                                JOINT RightHandMiddle2
                                {
                                    OFFSET -4.832084 0.000006 -0.000001
                                    CHANNELS 3 Zrotation Xrotation Yrotation
                                    JOINT RightHandMiddle3
                                    {
                                        OFFSET -2.635681 0.000000 -0.000000
                                        CHANNELS 3 Zrotation Xrotation Yrotation
                                        End Site
                                        {
                                            OFFSET -2.437479 0.000000 0.000000
                                        }
                                    }
                                }
                            }
                            JOINT RightHandRing1
                            {
                                OFFSET -7.467767 -0.000001 -1.019132
                                CHANNELS 3 Zrotation Xrotation Yrotation
                                JOINT RightHandRing2
                                {
                                    OFFSET -4.392805 0.000000 -0.000001
                                    CHANNELS 3 Zrotation Xrotation Yrotation
                                    JOINT RightHandRing3
                                    {
                                        OFFSET -2.196404 0.000006 -0.000001
                                        CHANNELS 3 Zrotation Xrotation Yrotation
                                        End Site
                                        {
                                            OFFSET -2.031233 0.000000 0.000000
                                        }
                                    }
                                }
                            }
                            JOINT RightHandPinky1
                            {
                                OFFSET -7.028485 -0.000004 -3.074961
                                CHANNELS 3 Zrotation Xrotation Yrotation
                                JOINT RightHandPinky2
                                {
                                    OFFSET -3.514243 -0.000000 -0.000001
                                    CHANNELS 3 Zrotation Xrotation Yrotation
                                    JOINT RightHandPinky3
                                    {
                                        OFFSET -1.757119 0.000000 0.000001
                                        CHANNELS 3 Zrotation Xrotation Yrotation
                                        End Site
                                        {
                                            OFFSET -1.624986 0.000000 0.000000
                                        }
                                    }
                                }
                            }
                        }
                    }
                }
            }
        }
    }
    JOINT LeftUpLeg
    {
        OFFSET 9.248009 -0.000002 0.000000
        CHANNELS 3 Zrotation Xrotation Yrotation
        JOINT LeftLeg
        {
            OFFSET 0.000003 -38.512657 -0.000000
            CHANNELS 3 Zrotation Xrotation Yrotation
            JOINT LeftFoot
            {
                OFFSET 0.000004 -38.203129 0.000000
                CHANNELS 3 Zrotation Xrotation Yrotation
                JOINT LeftToeBase
                {
                    OFFSET 0.000001 -6.011203 13.872011
                    CHANNELS 3 Zrotation Xrotation Yrotation
                    End Site
                    {
                        OFFSET 0.000000 0.000000 3.699204
                    }
                }
            }
        }
    }
    JOINT RightUpLeg
    {
        OFFSET -9.248009 0.000002 0.000000
        CHANNELS 3 Zrotation Xrotation Yrotation
        JOINT RightLeg
        {
            OFFSET -0.000004 -38.512657 0.000000
            CHANNELS 3 Zrotation Xrotation Yrotation
            JOINT RightFoot
            {
                OFFSET -0.000006 -38.203129 0.000000
                CHANNELS 3 Zrotation Xrotation Yrotation
                JOINT RightToeBase
                {
                    OFFSET -0.000004 -6.011204 13.872006
                    CHANNELS 3 Zrotation Xrotation Yrotation
                    End Site
                    {
                        OFFSET 0.000000 0.000000 3.699204
                    }
                }
            }
        }
    }
}
MOTION
Frames:    4
Frame Time:    0.008333
-12.423800    86.054329    -117.502068    -4.688618    -1.348213    -99.804787    -0.379195    2.630569    -2.842587    -1.895974    2.629189    -2.772995    0.697623    0.891110    7.839709    0.697623    0.891110    7.839713    3.441890    7.717487    -1.627534    -5.642371    35.266769    -56.949387    17.632137    -8.270278    -114.350052    -11.619869    -15.844332    53.594353    47.448208    38.866428    -34.355030    -34.999992    0.000002    0.000003    -0.000000    0.000000    -0.000000    0.000003    10.000001    0.000000    -0.000000    0.000000    -0.000000    -0.000000    0.000000    -0.000000    -0.000000    0.000000    -0.000000    -0.000000    0.000000    -0.000000    -0.000000    0.000000    -0.000000    -0.000000    0.000000    -0.000000    -0.000000    0.000000    -0.000000    -0.000000    0.000000    -0.000000    -0.000000    -10.000000    -0.000000    -0.000000    0.000000    -0.000000    -0.000000    0.000000    -0.000000    -5.067504    9.461209    4.063749    16.819693    37.658741    43.644497    -23.328915    -6.492569    104.691750    7.140232    0.179402    -0.512181    -47.448208    38.866428    34.355030    35.000004    0.000005    0.000004    -0.000000    0.000000    -0.000000    -0.000000    10.000002    -0.000002    -0.000000    0.000000    -0.000000    -0.000000    0.000000    -0.000000    -0.000000    0.000000    -0.000000    -0.000000    0.000000    -0.000000    -0.000000    0.000000    -0.000000    -0.000000    0.000000    -0.000000    -0.000000    0.000000    -0.000000    -0.000000    0.000000    -0.000000    -0.000002    -10.000001    0.000001    -0.000000    0.000000    -0.000000    -0.000000    0.000000    -0.000000    8.281059    -8.449211    1.530729    0.000003    24.943541    -0.000008    14.711843    -11.419604    -13.352395    -0.000001    -13.132939    -0.000010    -2.045698    -9.910470    5.538971    0.000001    37.222736    0.000005    -5.030693    -16.124945    -5.608266    -0.000000    -8.155322    -0.000004    
-12.568217    85.773697    -117.304970    -4.824567    -1.374008    -99.938721    -0.399226    2.649945    -2.898370    -1.996131    2.648403    -2.824566    0.899382    0.938163    7.673268    0.899382    0.938163    7.673265    2.653180    8.211747    -1.727988    -6.383861    36.295197    -57.181152    11.933405    -5.208201    -113.244377    -12.577724    -18.523266    55.262302    47.448219    38.866428    -34.355053    -35.000000    -0.000003    -0.000002    -0.000000    0.000000    -0.000000    0.000004    10.000005    -0.000003    -0.000000    0.000000    -0.000000    -0.000000    0.000000    -0.000000    -0.000000    0.000000    -0.000000    -0.000000    0.000000    -0.000000    -0.000000    0.000000    -0.000000    -0.000000    0.000000    -0.000000    -0.000000    0.000000    -0.000000    -0.000000    0.000000    -0.000000    -0.000000    -9.999996    -0.000003    -0.000000    0.000000    -0.000000    -0.000000    0.000000    -0.000000    -4.769871    9.985716    4.338599    16.084675    39.647015    44.022575    -23.937363    -5.510094    102.205215    6.172400    0.241291    -0.050014    -47.448204    38.866421    34.355030    34.999996    -0.000003    0.000001    -0.000000    0.000000    -0.000000    0.000001    10.000001    0.000001    -0.000000    0.000000    -0.000000    -0.000000    0.000000    -0.000000    -0.000000    0.000000    -0.000000    -0.000000    0.000000    -0.000000    -0.000000    0.000000    -0.000000    -0.000000    0.000000    -0.000000    -0.000000    0.000000    -0.000000    -0.000000    0.000000    -0.000000    0.000005    -10.000000    0.000006    -0.000000    0.000000    -0.000000    -0.000000    0.000000    -0.000000    8.398632    -8.320694    1.766404    -0.000003    24.721676    0.000008    13.195472    -10.442514    -14.141171    0.000005    -11.974374    0.000004    -2.115010    -10.457675    5.709188    -0.000000    38.662380    0.000004    -5.175080    -16.615330    -5.814710    0.000001    -8.407559    0.000004    
-12.737197    85.456093    -117.071808    -4.933118    -1.413440    -100.111023    -0.419887    2.647538    -2.903092    -2.099433    2.645834    -2.825528    1.096228    0.880859    7.693167    1.096228    0.880859    7.693150    2.058436    8.707630    -1.747479    -7.107685    37.287067    -57.113972    6.383594    -2.603614    -112.098694    -14.222462    -20.830694    54.683804    47.448215    38.866428    -34.355049    -34.999992    -0.000004    0.000003    -0.000000    0.000000    -0.000000    0.000000    9.999999    -0.000002    -0.000000    0.000000    -0.000000    -0.000000    0.000000    -0.000000    -0.000000    0.000000    -0.000000    -0.000000    0.000000    -0.000000    -0.000000    0.000000    -0.000000    -0.000000    0.000000    -0.000000    -0.000000    0.000000    -0.000000    -0.000000    0.000000    -0.000000    -0.000003    -10.000000    -0.000000    -0.000000    0.000000    -0.000000    -0.000000    0.000000    -0.000000    -4.521060    10.508889    4.593531    15.227417    41.483562    44.471569    -24.733095    -4.542399    99.755196    4.979130    0.291089    0.446735    -47.448219    38.866432    34.355038    35.000004    -0.000004    -0.000003    -0.000000    0.000000    -0.000000    -0.000004    10.000002    -0.000002    -0.000000    0.000000    -0.000000    -0.000000    0.000000    -0.000000    -0.000000    0.000000    -0.000000    -0.000000    0.000000    -0.000000    -0.000000    0.000000    -0.000000    -0.000000    0.000000    -0.000000    -0.000000    0.000000    -0.000000    -0.000000    0.000000    -0.000000    -0.000004    -9.999999    -0.000008    -0.000000    0.000000    -0.000000    -0.000000    0.000000    -0.000000    8.567355    -8.230844    1.897431    -0.000001    24.760954    -0.000002    10.513052    -9.905963    -14.996437    0.000003    -10.301463    0.000003    -2.219856    -11.041359    5.869185    0.000008    40.132160    -0.000013    -5.345880    -17.140978    -6.009317    -0.000000    -8.663685    0.000005    
-12.783450    85.256729    -116.866135    -5.196216    -1.574083    -100.141571    -0.489896    2.839506    -3.011471    -2.449475    2.837019    -2.914436    1.378418    0.681976    7.503796    1.378418    0.681976    7.503776    1.570830    9.086270    -1.812744    -7.620867    38.064003    -56.593079    1.742143    -0.671722    -111.079002    -15.889602    -22.763420    53.698566    47.448212    38.866428    -34.355019    -35.000000    0.000007    0.000001    -0.000000    0.000000    -0.000000    0.000004    9.999999    -0.000003    -0.000000    0.000000    -0.000000    -0.000000    0.000000    -0.000000    -0.000000    0.000000    -0.000000    -0.000000    0.000000    -0.000000    -0.000000    0.000000    -0.000000    -0.000000    0.000000    -0.000000    -0.000000    0.000000    -0.000000    -0.000000    0.000000    -0.000000    0.000000    -10.000001    0.000002    -0.000000    0.000000    -0.000000    -0.000000    0.000000    -0.000000    -4.222686    10.938160    4.930333    14.139020    43.084774    45.282845    -26.828852    -3.524002    96.929237    3.141648    0.347867    1.401816    -47.448212    38.866440    34.355026    35.000000    -0.000005    -0.000003    -0.000000    0.000000    -0.000000    -0.000006    10.000003    -0.000005    -0.000000    0.000000    -0.000000    -0.000000    0.000000    -0.000000    -0.000000    0.000000    -0.000000    -0.000000    0.000000    -0.000000    -0.000000    0.000000    -0.000000    -0.000000    0.000000    -0.000000    -0.000000    0.000000    -0.000000    -0.000000    0.000000    -0.000000    -0.000008    -9.999993    -0.000008    -0.000000    0.000000    -0.000000    -0.000000    0.000000    -0.000000    8.568944    -8.023594    2.035013    -0.000001    25.116772    -0.000003    7.867968    -10.954515    -15.742309    0.000003    -9.103568    0.000001    -2.425820    -11.514801    5.983013    -0.000008    41.443310    0.000015    -5.537664    -17.281954    -6.259368    -0.000001    -8.862527    0.000003    
